<?xml version="1.0" encoding="UTF-8"?>
<svg width="32" height="32" viewBox="0 0 32 32" fill="none" xmlns="http://www.w3.org/2000/svg">
    <circle cx="16" cy="16" r="16" fill="#1DB954" />
    <path
        d="M23 12.5c-4.5-2.7-10-2.3-13.8-0.3-0.6 0.3-1.2-0.1-1.2-0.7 0-0.4 0.2-0.7 0.5-0.9 4.3-2.3 10.4-2.7 15.5 0.3 0.5 0.3 0.7 1 0.4 1.5-0.3 0.5-1 0.7-1.5 0.4z"
        fill="white" />
    <path
        d="M22.2 15.5c-3.7-2.2-8.4-2.7-12.4-1.5-0.5 0.2-1-0.1-1.2-0.6-0.2-0.5 0.1-1 0.6-1.2 4.5-1.4 9.7-0.8 13.8 1.7 0.5 0.3 0.6 0.9 0.3 1.4-0.3 0.4-0.9 0.5-1.4 0.2z"
        fill="white" />
    <path
        d="M21.3 18.4c-3-1.8-6.7-2.2-11.1-1.2-0.4 0.1-0.8-0.1-1-0.5-0.1-0.4 0.1-0.8 0.5-1 4.8-1.1 8.9-0.6 12.2 1.4 0.4 0.2 0.5 0.7 0.3 1.1-0.2 0.4-0.7 0.5-1.1 0.3z"
        fill="white" />
</svg> 